<svg width="159" height="45" viewBox="0 0 159 45" fill="none" xmlns="http://www.w3.org/2000/svg">
<g clip-path="url(#clip0_325_152)">
<rect x="4" y="4" width="37" height="37" rx="6" fill="#5D0EC0"/>
<path d="M11.9286 9.28571V22.5C11.9286 27.7857 14.5714 30.4286 17.2143 30.4286C19.8571 30.4286 22.5 27.7857 22.5 22.5V9.28571" stroke="white" stroke-width="5" stroke-linecap="round"/>
<path d="M22.5 14.5714V27.7857C22.5 33.0714 25.1429 35.7143 27.7857 35.7143C30.4286 35.7143 33.0714 33.0714 33.0714 27.7857V14.5714" stroke="white" stroke-width="5" stroke-linecap="round"/>
<path opacity="0.8" d="M33.0714 11.9286V25.1428C33.0714 30.4286 35.7143 33.0714 38.3572 33.0714C41 33.0714 43.6429 30.4286 43.6429 25.1428V11.9286" stroke="white" stroke-width="5" stroke-linecap="round"/>
</g>
<path d="M58.48 19.66C57.3067 19.66 56.2987 19.4253 55.456 18.956C54.624 18.476 53.984 17.804 53.536 16.94C53.088 16.0653 52.864 15.036 52.864 13.852C52.864 12.9667 52.992 12.172 53.248 11.468C53.504 10.7533 53.872 10.1453 54.352 9.644C54.832 9.132 55.4187 8.74267 56.112 8.476C56.816 8.19867 57.6053 8.06 58.48 8.06C59.0667 8.06 59.6427 8.13467 60.208 8.284C60.7733 8.43333 61.2693 8.64667 61.696 8.924C61.92 9.06267 62.0693 9.23333 62.144 9.436C62.2187 9.628 62.2347 9.82 62.192 10.012C62.1493 10.1933 62.0587 10.348 61.92 10.476C61.792 10.604 61.6267 10.6787 61.424 10.7C61.232 10.7107 61.0187 10.6413 60.784 10.492C60.4533 10.2787 60.096 10.124 59.712 10.028C59.328 9.932 58.9387 9.884 58.544 9.884C57.7867 9.884 57.1467 10.0387 56.624 10.348C56.1013 10.6573 55.7067 11.1053 55.44 11.692C55.1733 12.2787 55.04 12.9987 55.04 13.852C55.04 14.6947 55.1733 15.4147 55.44 16.012C55.7067 16.6093 56.1013 17.0627 56.624 17.372C57.1467 17.6813 57.7867 17.836 58.544 17.836C58.9493 17.836 59.3493 17.788 59.744 17.692C60.1387 17.5853 60.512 17.4253 60.864 17.212C61.0987 17.0733 61.3067 17.0147 61.488 17.036C61.68 17.0467 61.84 17.1107 61.968 17.228C62.096 17.3453 62.1813 17.4947 62.224 17.676C62.2667 17.8467 62.256 18.028 62.192 18.22C62.128 18.4013 62 18.5613 61.808 18.7C61.3813 19.0093 60.8693 19.2493 60.272 19.42C59.6853 19.58 59.088 19.66 58.48 19.66ZM66.587 19.66C65.7017 19.66 65.035 19.4093 64.587 18.908C64.139 18.396 63.915 17.6493 63.915 16.668V9.1C63.915 8.76933 64.0003 8.51867 64.171 8.348C64.3417 8.17733 64.587 8.092 64.907 8.092C65.227 8.092 65.4723 8.17733 65.643 8.348C65.8243 8.51867 65.915 8.76933 65.915 9.1V16.572C65.915 17.0627 66.0163 17.4253 66.219 17.66C66.4323 17.8947 66.731 18.012 67.115 18.012C67.2003 18.012 67.2803 18.012 67.355 18.012C67.4297 18.0013 67.5043 17.9907 67.579 17.98C67.7283 17.9587 67.8297 18.0013 67.883 18.108C67.9363 18.204 67.963 18.4067 67.963 18.716C67.963 18.9827 67.9097 19.1907 67.803 19.34C67.6963 19.4893 67.5203 19.58 67.275 19.612C67.1683 19.6227 67.0563 19.6333 66.939 19.644C66.8217 19.6547 66.7043 19.66 66.587 19.66ZM72.8023 19.66C71.9169 19.66 71.1543 19.4947 70.5143 19.164C69.8743 18.8333 69.3783 18.364 69.0263 17.756C68.6849 17.148 68.5143 16.428 68.5143 15.596C68.5143 14.7853 68.6796 14.076 69.0103 13.468C69.3516 12.86 69.8156 12.3853 70.4023 12.044C70.9996 11.692 71.6769 11.516 72.4343 11.516C72.9889 11.516 73.4849 11.6067 73.9223 11.788C74.3703 11.9693 74.7489 12.2307 75.0583 12.572C75.3783 12.9133 75.6183 13.3293 75.7783 13.82C75.9489 14.3 76.0343 14.844 76.0343 15.452C76.0343 15.644 75.9649 15.7933 75.8263 15.9C75.6983 15.996 75.5116 16.044 75.2663 16.044H70.1303V14.892H74.6263L74.3703 15.132C74.3703 14.6413 74.2956 14.2307 74.1463 13.9C74.0076 13.5693 73.7996 13.3187 73.5223 13.148C73.2556 12.9667 72.9196 12.876 72.5143 12.876C72.0663 12.876 71.6823 12.9827 71.3623 13.196C71.0529 13.3987 70.8129 13.692 70.6423 14.076C70.4823 14.4493 70.4023 14.8973 70.4023 15.42V15.532C70.4023 16.4067 70.6049 17.0627 71.0103 17.5C71.4263 17.9267 72.0343 18.14 72.8343 18.14C73.1116 18.14 73.4209 18.108 73.7623 18.044C74.1143 17.9693 74.4449 17.8467 74.7543 17.676C74.9783 17.548 75.1756 17.4947 75.3463 17.516C75.5169 17.5267 75.6503 17.5853 75.7463 17.692C75.8529 17.7987 75.9169 17.932 75.9383 18.092C75.9596 18.2413 75.9276 18.396 75.8423 18.556C75.7676 18.716 75.6343 18.8547 75.4423 18.972C75.0689 19.2067 74.6369 19.3827 74.1463 19.5C73.6663 19.6067 73.2183 19.66 72.8023 19.66ZM78.6421 19.628C78.3115 19.628 78.0555 19.5427 77.8741 19.372C77.7035 19.1907 77.6181 18.9347 77.6181 18.604V12.556C77.6181 12.2253 77.7035 11.9747 77.8741 11.804C78.0448 11.6333 78.2848 11.548 78.5941 11.548C78.9035 11.548 79.1435 11.6333 79.3141 11.804C79.4848 11.9747 79.5701 12.2253 79.5701 12.556V13.564H79.4101C79.5595 12.924 79.8528 12.4387 80.2901 12.108C80.7275 11.7773 81.3088 11.58 82.0341 11.516C82.2581 11.4947 82.4341 11.5533 82.5621 11.692C82.7008 11.82 82.7808 12.0227 82.8021 12.3C82.8235 12.5667 82.7595 12.7853 82.6101 12.956C82.4715 13.116 82.2581 13.212 81.9701 13.244L81.6181 13.276C80.9675 13.34 80.4768 13.5427 80.1461 13.884C79.8155 14.2147 79.6501 14.684 79.6501 15.292V18.604C79.6501 18.9347 79.5648 19.1907 79.3941 19.372C79.2235 19.5427 78.9728 19.628 78.6421 19.628ZM86.3816 19.66C85.8163 19.66 85.3096 19.5533 84.8616 19.34C84.4243 19.116 84.0776 18.8173 83.8216 18.444C83.5763 18.0707 83.4536 17.6493 83.4536 17.18C83.4536 16.604 83.603 16.1507 83.9016 15.82C84.2003 15.4787 84.6856 15.2333 85.3576 15.084C86.0296 14.9347 86.931 14.86 88.0616 14.86H88.8616V16.012H88.0776C87.4163 16.012 86.8883 16.044 86.4936 16.108C86.099 16.172 85.8163 16.284 85.6456 16.444C85.4856 16.5933 85.4056 16.8067 85.4056 17.084C85.4056 17.436 85.5283 17.724 85.7736 17.948C86.019 18.172 86.3603 18.284 86.7976 18.284C87.1496 18.284 87.459 18.204 87.7256 18.044C88.003 17.8733 88.2216 17.644 88.3816 17.356C88.5416 17.068 88.6216 16.7373 88.6216 16.364V14.524C88.6216 13.9907 88.5043 13.6067 88.2696 13.372C88.035 13.1373 87.6403 13.02 87.0856 13.02C86.7763 13.02 86.4403 13.0573 86.0776 13.132C85.7256 13.2067 85.3523 13.3347 84.9576 13.516C84.755 13.612 84.5736 13.6387 84.4136 13.596C84.2643 13.5533 84.147 13.468 84.0616 13.34C83.9763 13.2013 83.9336 13.052 83.9336 12.892C83.9336 12.732 83.9763 12.5773 84.0616 12.428C84.147 12.268 84.291 12.1507 84.4936 12.076C84.9843 11.8733 85.4536 11.7293 85.9016 11.644C86.3603 11.5587 86.7763 11.516 87.1496 11.516C87.9176 11.516 88.547 11.6333 89.0376 11.868C89.539 12.1027 89.9123 12.46 90.1576 12.94C90.403 13.4093 90.5256 14.0173 90.5256 14.764V18.604C90.5256 18.9347 90.4456 19.1907 90.2856 19.372C90.1256 19.5427 89.8963 19.628 89.5976 19.628C89.299 19.628 89.0643 19.5427 88.8936 19.372C88.7336 19.1907 88.6536 18.9347 88.6536 18.604V17.836H88.7816C88.707 18.2093 88.5576 18.5347 88.3336 18.812C88.1203 19.0787 87.8483 19.2867 87.5176 19.436C87.187 19.5853 86.8083 19.66 86.3816 19.66ZM95.6455 19.628C95.3788 19.628 95.1442 19.5587 94.9415 19.42C94.7495 19.2813 94.5895 19.068 94.4615 18.78L91.9175 12.876C91.8215 12.6413 91.7842 12.4227 91.8055 12.22C91.8375 12.0173 91.9335 11.8573 92.0935 11.74C92.2642 11.612 92.4935 11.548 92.7815 11.548C93.0268 11.548 93.2242 11.6067 93.3735 11.724C93.5228 11.8307 93.6562 12.0387 93.7735 12.348L95.9335 17.74H95.4535L97.6775 12.332C97.7948 12.0333 97.9282 11.8307 98.0775 11.724C98.2375 11.6067 98.4508 11.548 98.7175 11.548C98.9522 11.548 99.1388 11.612 99.2775 11.74C99.4162 11.8573 99.5015 12.0173 99.5335 12.22C99.5655 12.412 99.5282 12.6253 99.4215 12.86L96.8295 18.78C96.7122 19.068 96.5522 19.2813 96.3495 19.42C96.1575 19.5587 95.9228 19.628 95.6455 19.628ZM101.907 19.612C101.587 19.612 101.342 19.516 101.171 19.324C101 19.132 100.915 18.8653 100.915 18.524V12.652C100.915 12.3 101 12.0333 101.171 11.852C101.342 11.66 101.587 11.564 101.907 11.564C102.227 11.564 102.472 11.66 102.643 11.852C102.824 12.0333 102.915 12.3 102.915 12.652V18.524C102.915 18.8653 102.83 19.132 102.659 19.324C102.488 19.516 102.238 19.612 101.907 19.612ZM101.907 10.076C101.534 10.076 101.24 9.98533 101.027 9.804C100.824 9.612 100.723 9.35067 100.723 9.02C100.723 8.67867 100.824 8.41733 101.027 8.236C101.24 8.05467 101.534 7.964 101.907 7.964C102.291 7.964 102.584 8.05467 102.787 8.236C102.99 8.41733 103.091 8.67867 103.091 9.02C103.091 9.35067 102.99 9.612 102.787 9.804C102.584 9.98533 102.291 10.076 101.907 10.076ZM108.849 19.66C107.964 19.66 107.201 19.4947 106.561 19.164C105.921 18.8333 105.425 18.364 105.073 17.756C104.732 17.148 104.561 16.428 104.561 15.596C104.561 14.7853 104.726 14.076 105.057 13.468C105.398 12.86 105.862 12.3853 106.449 12.044C107.046 11.692 107.724 11.516 108.481 11.516C109.036 11.516 109.532 11.6067 109.969 11.788C110.417 11.9693 110.796 12.2307 111.105 12.572C111.425 12.9133 111.665 13.3293 111.825 13.82C111.996 14.3 112.081 14.844 112.081 15.452C112.081 15.644 112.012 15.7933 111.873 15.9C111.745 15.996 111.558 16.044 111.313 16.044H106.177V14.892H110.673L110.417 15.132C110.417 14.6413 110.342 14.2307 110.193 13.9C110.054 13.5693 109.846 13.3187 109.569 13.148C109.302 12.9667 108.966 12.876 108.561 12.876C108.113 12.876 107.729 12.9827 107.409 13.196C107.1 13.3987 106.86 13.692 106.689 14.076C106.529 14.4493 106.449 14.8973 106.449 15.42V15.532C106.449 16.4067 106.652 17.0627 107.057 17.5C107.473 17.9267 108.081 18.14 108.881 18.14C109.158 18.14 109.468 18.108 109.809 18.044C110.161 17.9693 110.492 17.8467 110.801 17.676C111.025 17.548 111.222 17.4947 111.393 17.516C111.564 17.5267 111.697 17.5853 111.793 17.692C111.9 17.7987 111.964 17.932 111.985 18.092C112.006 18.2413 111.974 18.396 111.889 18.556C111.814 18.716 111.681 18.8547 111.489 18.972C111.116 19.2067 110.684 19.3827 110.193 19.5C109.713 19.6067 109.265 19.66 108.849 19.66ZM116.564 19.628C116.297 19.628 116.068 19.564 115.876 19.436C115.684 19.2973 115.529 19.084 115.412 18.796L113.092 12.876C112.996 12.62 112.964 12.396 112.996 12.204C113.039 12.0013 113.14 11.8413 113.3 11.724C113.46 11.6067 113.673 11.548 113.94 11.548C114.175 11.548 114.367 11.6067 114.516 11.724C114.665 11.8307 114.793 12.0387 114.9 12.348L116.836 17.676H116.468L118.468 12.22C118.553 11.9853 118.665 11.8147 118.804 11.708C118.953 11.6013 119.145 11.548 119.38 11.548C119.615 11.548 119.807 11.6067 119.956 11.724C120.105 11.8307 120.217 11.996 120.292 12.22L122.26 17.676H121.924L123.876 12.3C123.983 12.012 124.116 11.8147 124.276 11.708C124.447 11.6013 124.633 11.548 124.836 11.548C125.092 11.548 125.289 11.612 125.428 11.74C125.567 11.868 125.647 12.0333 125.668 12.236C125.689 12.428 125.652 12.6413 125.556 12.876L123.252 18.796C123.145 19.0733 122.991 19.2813 122.788 19.42C122.596 19.5587 122.367 19.628 122.1 19.628C121.833 19.628 121.599 19.5587 121.396 19.42C121.204 19.2813 121.055 19.0733 120.948 18.796L118.852 13.244H119.764L117.716 18.78C117.609 19.068 117.46 19.2813 117.268 19.42C117.076 19.5587 116.841 19.628 116.564 19.628Z" fill="#7008E7"/>
<path d="M56.86 37.62C55.98 37.62 55.224 37.444 54.592 37.092C53.968 36.732 53.488 36.228 53.152 35.58C52.816 34.924 52.648 34.152 52.648 33.264C52.648 32.6 52.744 32.004 52.936 31.476C53.128 30.94 53.404 30.484 53.764 30.108C54.124 29.724 54.564 29.432 55.084 29.232C55.612 29.024 56.204 28.92 56.86 28.92C57.3 28.92 57.732 28.976 58.156 29.088C58.58 29.2 58.952 29.36 59.272 29.568C59.44 29.672 59.552 29.8 59.608 29.952C59.664 30.096 59.676 30.24 59.644 30.384C59.612 30.52 59.544 30.636 59.44 30.732C59.344 30.828 59.22 30.884 59.068 30.9C58.924 30.908 58.764 30.856 58.588 30.744C58.34 30.584 58.072 30.468 57.784 30.396C57.496 30.324 57.204 30.288 56.908 30.288C56.34 30.288 55.86 30.404 55.468 30.636C55.076 30.868 54.78 31.204 54.58 31.644C54.38 32.084 54.28 32.624 54.28 33.264C54.28 33.896 54.38 34.436 54.58 34.884C54.78 35.332 55.076 35.672 55.468 35.904C55.86 36.136 56.34 36.252 56.908 36.252C57.212 36.252 57.512 36.216 57.808 36.144C58.104 36.064 58.384 35.944 58.648 35.784C58.824 35.68 58.98 35.636 59.116 35.652C59.26 35.66 59.38 35.708 59.476 35.796C59.572 35.884 59.636 35.996 59.668 36.132C59.7 36.26 59.692 36.396 59.644 36.54C59.596 36.676 59.5 36.796 59.356 36.9C59.036 37.132 58.652 37.312 58.204 37.44C57.764 37.56 57.316 37.62 56.86 37.62ZM63.1904 37.62C62.5824 37.62 62.0544 37.496 61.6064 37.248C61.1584 37 60.8104 36.648 60.5624 36.192C60.3144 35.728 60.1904 35.184 60.1904 34.56C60.1904 34.088 60.2584 33.668 60.3944 33.3C60.5384 32.924 60.7424 32.604 61.0064 32.34C61.2704 32.068 61.5864 31.864 61.9544 31.728C62.3224 31.584 62.7344 31.512 63.1904 31.512C63.7984 31.512 64.3264 31.636 64.7744 31.884C65.2224 32.132 65.5704 32.484 65.8184 32.94C66.0664 33.396 66.1904 33.936 66.1904 34.56C66.1904 35.032 66.1184 35.456 65.9744 35.832C65.8384 36.208 65.6384 36.532 65.3744 36.804C65.1104 37.068 64.7944 37.272 64.4264 37.416C64.0584 37.552 63.6464 37.62 63.1904 37.62ZM63.1904 36.48C63.4864 36.48 63.7464 36.408 63.9704 36.264C64.1944 36.12 64.3664 35.908 64.4864 35.628C64.6144 35.34 64.6784 34.984 64.6784 34.56C64.6784 33.92 64.5424 33.444 64.2704 33.132C63.9984 32.812 63.6384 32.652 63.1904 32.652C62.8944 32.652 62.6344 32.724 62.4104 32.868C62.1864 33.004 62.0104 33.216 61.8824 33.504C61.7624 33.784 61.7024 34.136 61.7024 34.56C61.7024 35.192 61.8384 35.672 62.1104 36C62.3824 36.32 62.7424 36.48 63.1904 36.48ZM68.1724 37.596C67.9324 37.596 67.7484 37.532 67.6204 37.404C67.4924 37.268 67.4284 37.076 67.4284 36.828V32.292C67.4284 32.044 67.4924 31.856 67.6204 31.728C67.7484 31.6 67.9284 31.536 68.1604 31.536C68.3924 31.536 68.5724 31.6 68.7004 31.728C68.8284 31.856 68.8924 32.044 68.8924 32.292V33.108L68.7604 32.808C68.9364 32.384 69.2084 32.064 69.5764 31.848C69.9524 31.624 70.3764 31.512 70.8484 31.512C71.3204 31.512 71.7084 31.6 72.0124 31.776C72.3164 31.952 72.5444 32.22 72.6964 32.58C72.8484 32.932 72.9244 33.38 72.9244 33.924V36.828C72.9244 37.076 72.8604 37.268 72.7324 37.404C72.6044 37.532 72.4204 37.596 72.1804 37.596C71.9404 37.596 71.7524 37.532 71.6164 37.404C71.4884 37.268 71.4244 37.076 71.4244 36.828V33.996C71.4244 33.54 71.3364 33.208 71.1604 33C70.9924 32.792 70.7284 32.688 70.3684 32.688C69.9284 32.688 69.5764 32.828 69.3124 33.108C69.0564 33.38 68.9284 33.744 68.9284 34.2V36.828C68.9284 37.34 68.6764 37.596 68.1724 37.596ZM76.596 37.62C76.252 37.62 75.888 37.584 75.504 37.512C75.12 37.44 74.776 37.316 74.472 37.14C74.344 37.06 74.252 36.968 74.196 36.864C74.148 36.752 74.128 36.644 74.136 36.54C74.152 36.428 74.192 36.332 74.256 36.252C74.328 36.172 74.416 36.12 74.52 36.096C74.632 36.072 74.752 36.092 74.88 36.156C75.2 36.308 75.5 36.416 75.78 36.48C76.06 36.536 76.336 36.564 76.608 36.564C76.992 36.564 77.276 36.5 77.46 36.372C77.652 36.236 77.748 36.06 77.748 35.844C77.748 35.66 77.684 35.52 77.556 35.424C77.436 35.32 77.252 35.244 77.004 35.196L75.804 34.968C75.308 34.872 74.928 34.692 74.664 34.428C74.408 34.156 74.28 33.808 74.28 33.384C74.28 33 74.384 32.668 74.592 32.388C74.808 32.108 75.104 31.892 75.48 31.74C75.856 31.588 76.288 31.512 76.776 31.512C77.128 31.512 77.456 31.552 77.76 31.632C78.072 31.704 78.372 31.82 78.66 31.98C78.78 32.044 78.86 32.128 78.9 32.232C78.948 32.336 78.96 32.444 78.936 32.556C78.912 32.66 78.864 32.756 78.792 32.844C78.72 32.924 78.628 32.976 78.516 33C78.412 33.016 78.292 32.992 78.156 32.928C77.908 32.8 77.668 32.708 77.436 32.652C77.212 32.596 76.996 32.568 76.788 32.568C76.396 32.568 76.104 32.636 75.912 32.772C75.728 32.908 75.636 33.088 75.636 33.312C75.636 33.48 75.692 33.62 75.804 33.732C75.916 33.844 76.088 33.92 76.32 33.96L77.52 34.188C78.04 34.284 78.432 34.46 78.696 34.716C78.968 34.972 79.104 35.316 79.104 35.748C79.104 36.332 78.876 36.792 78.42 37.128C77.964 37.456 77.356 37.62 76.596 37.62ZM82.9833 37.62C82.3753 37.62 81.8473 37.496 81.3993 37.248C80.9513 37 80.6033 36.648 80.3553 36.192C80.1073 35.728 79.9833 35.184 79.9833 34.56C79.9833 34.088 80.0513 33.668 80.1873 33.3C80.3313 32.924 80.5353 32.604 80.7993 32.34C81.0633 32.068 81.3793 31.864 81.7473 31.728C82.1153 31.584 82.5273 31.512 82.9833 31.512C83.5913 31.512 84.1193 31.636 84.5673 31.884C85.0153 32.132 85.3633 32.484 85.6113 32.94C85.8593 33.396 85.9833 33.936 85.9833 34.56C85.9833 35.032 85.9113 35.456 85.7673 35.832C85.6313 36.208 85.4313 36.532 85.1673 36.804C84.9033 37.068 84.5873 37.272 84.2193 37.416C83.8513 37.552 83.4393 37.62 82.9833 37.62ZM82.9833 36.48C83.2793 36.48 83.5393 36.408 83.7633 36.264C83.9873 36.12 84.1593 35.908 84.2793 35.628C84.4073 35.34 84.4713 34.984 84.4713 34.56C84.4713 33.92 84.3353 33.444 84.0633 33.132C83.7913 32.812 83.4313 32.652 82.9833 32.652C82.6873 32.652 82.4273 32.724 82.2033 32.868C81.9793 33.004 81.8033 33.216 81.6753 33.504C81.5553 33.784 81.4953 34.136 81.4953 34.56C81.4953 35.192 81.6313 35.672 81.9033 36C82.1753 36.32 82.5353 36.48 82.9833 36.48ZM89.2254 37.62C88.5614 37.62 88.0614 37.432 87.7254 37.056C87.3894 36.672 87.2214 36.112 87.2214 35.376V29.7C87.2214 29.452 87.2854 29.264 87.4134 29.136C87.5414 29.008 87.7254 28.944 87.9654 28.944C88.2054 28.944 88.3894 29.008 88.5174 29.136C88.6534 29.264 88.7214 29.452 88.7214 29.7V35.304C88.7214 35.672 88.7974 35.944 88.9494 36.12C89.1094 36.296 89.3334 36.384 89.6214 36.384C89.6854 36.384 89.7454 36.384 89.8014 36.384C89.8574 36.376 89.9134 36.368 89.9694 36.36C90.0814 36.344 90.1574 36.376 90.1974 36.456C90.2374 36.528 90.2574 36.68 90.2574 36.912C90.2574 37.112 90.2174 37.268 90.1374 37.38C90.0574 37.492 89.9254 37.56 89.7414 37.584C89.6614 37.592 89.5774 37.6 89.4894 37.608C89.4014 37.616 89.3134 37.62 89.2254 37.62ZM93.8868 37.62C93.2228 37.62 92.6508 37.496 92.1708 37.248C91.6908 37 91.3188 36.648 91.0548 36.192C90.7988 35.736 90.6708 35.196 90.6708 34.572C90.6708 33.964 90.7948 33.432 91.0428 32.976C91.2988 32.52 91.6468 32.164 92.0868 31.908C92.5348 31.644 93.0428 31.512 93.6108 31.512C94.0268 31.512 94.3988 31.58 94.7268 31.716C95.0628 31.852 95.3468 32.048 95.5788 32.304C95.8188 32.56 95.9988 32.872 96.1188 33.24C96.2468 33.6 96.3108 34.008 96.3108 34.464C96.3108 34.608 96.2588 34.72 96.1548 34.8C96.0588 34.872 95.9188 34.908 95.7348 34.908H91.8828V34.044H95.2548L95.0628 34.224C95.0628 33.856 95.0068 33.548 94.8948 33.3C94.7908 33.052 94.6348 32.864 94.4268 32.736C94.2268 32.6 93.9748 32.532 93.6708 32.532C93.3348 32.532 93.0468 32.612 92.8068 32.772C92.5748 32.924 92.3948 33.144 92.2668 33.432C92.1468 33.712 92.0868 34.048 92.0868 34.44V34.524C92.0868 35.18 92.2388 35.672 92.5428 36C92.8548 36.32 93.3108 36.48 93.9108 36.48C94.1188 36.48 94.3508 36.456 94.6068 36.408C94.8708 36.352 95.1188 36.26 95.3508 36.132C95.5188 36.036 95.6668 35.996 95.7948 36.012C95.9228 36.02 96.0228 36.064 96.0948 36.144C96.1748 36.224 96.2228 36.324 96.2388 36.444C96.2548 36.556 96.2308 36.672 96.1668 36.792C96.1108 36.912 96.0108 37.016 95.8668 37.104C95.5868 37.28 95.2628 37.412 94.8948 37.5C94.5348 37.58 94.1988 37.62 93.8868 37.62Z" fill="#A1A1A1"/>
<defs>
<clipPath id="clip0_325_152">
<rect x="4" y="4" width="37" height="37" rx="6" fill="white"/>
</clipPath>
</defs>
</svg>
