<svg width="131" height="45" viewBox="0 0 131 45" fill="none" xmlns="http://www.w3.org/2000/svg">
<g clip-path="url(#clip0_64_131)">
<rect x="4" y="4" width="37" height="37" rx="6" fill="#5D0EC0"/>
<path d="M11.9286 9.28571V22.5C11.9286 27.7857 14.5714 30.4286 17.2143 30.4286C19.8571 30.4286 22.5 27.7857 22.5 22.5V9.28571" stroke="white" stroke-width="5" stroke-linecap="round"/>
<path d="M22.5 14.5714V27.7857C22.5 33.0714 25.1429 35.7143 27.7857 35.7143C30.4286 35.7143 33.0714 33.0714 33.0714 27.7857V14.5714" stroke="white" stroke-width="5" stroke-linecap="round"/>
<path opacity="0.8" d="M33.0714 11.9286V25.1428C33.0714 30.4286 35.7143 33.0714 38.3571 33.0714C41 33.0714 43.6429 30.4286 43.6429 25.1428V11.9286" stroke="white" stroke-width="5" stroke-linecap="round"/>
</g>
<path d="M58.48 27.66C57.3067 27.66 56.2987 27.4253 55.456 26.956C54.624 26.476 53.984 25.804 53.536 24.94C53.088 24.0653 52.864 23.036 52.864 21.852C52.864 20.9667 52.992 20.172 53.248 19.468C53.504 18.7533 53.872 18.1453 54.352 17.644C54.832 17.132 55.4187 16.7427 56.112 16.476C56.816 16.1987 57.6053 16.06 58.48 16.06C59.0667 16.06 59.6427 16.1347 60.208 16.284C60.7733 16.4333 61.2693 16.6467 61.696 16.924C61.92 17.0627 62.0693 17.2333 62.144 17.436C62.2187 17.628 62.2347 17.82 62.192 18.012C62.1493 18.1933 62.0587 18.348 61.92 18.476C61.792 18.604 61.6267 18.6787 61.424 18.7C61.232 18.7107 61.0187 18.6413 60.784 18.492C60.4533 18.2787 60.096 18.124 59.712 18.028C59.328 17.932 58.9387 17.884 58.544 17.884C57.7867 17.884 57.1467 18.0387 56.624 18.348C56.1013 18.6573 55.7067 19.1053 55.44 19.692C55.1733 20.2787 55.04 20.9987 55.04 21.852C55.04 22.6947 55.1733 23.4147 55.44 24.012C55.7067 24.6093 56.1013 25.0627 56.624 25.372C57.1467 25.6813 57.7867 25.836 58.544 25.836C58.9493 25.836 59.3493 25.788 59.744 25.692C60.1387 25.5853 60.512 25.4253 60.864 25.212C61.0987 25.0733 61.3067 25.0147 61.488 25.036C61.68 25.0467 61.84 25.1107 61.968 25.228C62.096 25.3453 62.1813 25.4947 62.224 25.676C62.2667 25.8467 62.256 26.028 62.192 26.22C62.128 26.4013 62 26.5613 61.808 26.7C61.3813 27.0093 60.8693 27.2493 60.272 27.42C59.6853 27.58 59.088 27.66 58.48 27.66ZM66.587 27.66C65.7017 27.66 65.035 27.4093 64.587 26.908C64.139 26.396 63.915 25.6493 63.915 24.668V17.1C63.915 16.7693 64.0003 16.5187 64.171 16.348C64.3417 16.1773 64.587 16.092 64.907 16.092C65.227 16.092 65.4723 16.1773 65.643 16.348C65.8243 16.5187 65.915 16.7693 65.915 17.1V24.572C65.915 25.0627 66.0163 25.4253 66.219 25.66C66.4323 25.8947 66.731 26.012 67.115 26.012C67.2003 26.012 67.2803 26.012 67.355 26.012C67.4297 26.0013 67.5043 25.9907 67.579 25.98C67.7283 25.9587 67.8297 26.0013 67.883 26.108C67.9363 26.204 67.963 26.4067 67.963 26.716C67.963 26.9827 67.9097 27.1907 67.803 27.34C67.6963 27.4893 67.5203 27.58 67.275 27.612C67.1683 27.6227 67.0563 27.6333 66.939 27.644C66.8217 27.6547 66.7043 27.66 66.587 27.66ZM72.8023 27.66C71.9169 27.66 71.1543 27.4947 70.5143 27.164C69.8743 26.8333 69.3783 26.364 69.0263 25.756C68.6849 25.148 68.5143 24.428 68.5143 23.596C68.5143 22.7853 68.6796 22.076 69.0103 21.468C69.3516 20.86 69.8156 20.3853 70.4023 20.044C70.9996 19.692 71.6769 19.516 72.4343 19.516C72.9889 19.516 73.4849 19.6067 73.9223 19.788C74.3703 19.9693 74.7489 20.2307 75.0583 20.572C75.3783 20.9133 75.6183 21.3293 75.7783 21.82C75.9489 22.3 76.0343 22.844 76.0343 23.452C76.0343 23.644 75.9649 23.7933 75.8263 23.9C75.6983 23.996 75.5116 24.044 75.2663 24.044H70.1303V22.892H74.6263L74.3703 23.132C74.3703 22.6413 74.2956 22.2307 74.1463 21.9C74.0076 21.5693 73.7996 21.3187 73.5223 21.148C73.2556 20.9667 72.9196 20.876 72.5143 20.876C72.0663 20.876 71.6823 20.9827 71.3623 21.196C71.0529 21.3987 70.8129 21.692 70.6423 22.076C70.4823 22.4493 70.4023 22.8973 70.4023 23.42V23.532C70.4023 24.4067 70.6049 25.0627 71.0103 25.5C71.4263 25.9267 72.0343 26.14 72.8343 26.14C73.1116 26.14 73.4209 26.108 73.7623 26.044C74.1143 25.9693 74.4449 25.8467 74.7543 25.676C74.9783 25.548 75.1756 25.4947 75.3463 25.516C75.5169 25.5267 75.6503 25.5853 75.7463 25.692C75.8529 25.7987 75.9169 25.932 75.9383 26.092C75.9596 26.2413 75.9276 26.396 75.8423 26.556C75.7676 26.716 75.6343 26.8547 75.4423 26.972C75.0689 27.2067 74.6369 27.3827 74.1463 27.5C73.6663 27.6067 73.2183 27.66 72.8023 27.66ZM78.6421 27.628C78.3115 27.628 78.0555 27.5427 77.8741 27.372C77.7035 27.1907 77.6181 26.9347 77.6181 26.604V20.556C77.6181 20.2253 77.7035 19.9747 77.8741 19.804C78.0448 19.6333 78.2848 19.548 78.5941 19.548C78.9035 19.548 79.1435 19.6333 79.3141 19.804C79.4848 19.9747 79.5701 20.2253 79.5701 20.556V21.564H79.4101C79.5595 20.924 79.8528 20.4387 80.2901 20.108C80.7275 19.7773 81.3088 19.58 82.0341 19.516C82.2581 19.4947 82.4341 19.5533 82.5621 19.692C82.7008 19.82 82.7808 20.0227 82.8021 20.3C82.8235 20.5667 82.7595 20.7853 82.6101 20.956C82.4715 21.116 82.2581 21.212 81.9701 21.244L81.6181 21.276C80.9675 21.34 80.4768 21.5427 80.1461 21.884C79.8155 22.2147 79.6501 22.684 79.6501 23.292V26.604C79.6501 26.9347 79.5648 27.1907 79.3941 27.372C79.2235 27.5427 78.9728 27.628 78.6421 27.628ZM86.3816 27.66C85.8163 27.66 85.3096 27.5533 84.8616 27.34C84.4243 27.116 84.0776 26.8173 83.8216 26.444C83.5763 26.0707 83.4536 25.6493 83.4536 25.18C83.4536 24.604 83.603 24.1507 83.9016 23.82C84.2003 23.4787 84.6856 23.2333 85.3576 23.084C86.0296 22.9347 86.931 22.86 88.0616 22.86H88.8616V24.012H88.0776C87.4163 24.012 86.8883 24.044 86.4936 24.108C86.099 24.172 85.8163 24.284 85.6456 24.444C85.4856 24.5933 85.4056 24.8067 85.4056 25.084C85.4056 25.436 85.5283 25.724 85.7736 25.948C86.019 26.172 86.3603 26.284 86.7976 26.284C87.1496 26.284 87.459 26.204 87.7256 26.044C88.003 25.8733 88.2216 25.644 88.3816 25.356C88.5416 25.068 88.6216 24.7373 88.6216 24.364V22.524C88.6216 21.9907 88.5043 21.6067 88.2696 21.372C88.035 21.1373 87.6403 21.02 87.0856 21.02C86.7763 21.02 86.4403 21.0573 86.0776 21.132C85.7256 21.2067 85.3523 21.3347 84.9576 21.516C84.755 21.612 84.5736 21.6387 84.4136 21.596C84.2643 21.5533 84.147 21.468 84.0616 21.34C83.9763 21.2013 83.9336 21.052 83.9336 20.892C83.9336 20.732 83.9763 20.5773 84.0616 20.428C84.147 20.268 84.291 20.1507 84.4936 20.076C84.9843 19.8733 85.4536 19.7293 85.9016 19.644C86.3603 19.5587 86.7763 19.516 87.1496 19.516C87.9176 19.516 88.547 19.6333 89.0376 19.868C89.539 20.1027 89.9123 20.46 90.1576 20.94C90.403 21.4093 90.5256 22.0173 90.5256 22.764V26.604C90.5256 26.9347 90.4456 27.1907 90.2856 27.372C90.1256 27.5427 89.8963 27.628 89.5976 27.628C89.299 27.628 89.0643 27.5427 88.8936 27.372C88.7336 27.1907 88.6536 26.9347 88.6536 26.604V25.836H88.7816C88.707 26.2093 88.5576 26.5347 88.3336 26.812C88.1203 27.0787 87.8483 27.2867 87.5176 27.436C87.187 27.5853 86.8083 27.66 86.3816 27.66ZM95.6455 27.628C95.3788 27.628 95.1442 27.5587 94.9415 27.42C94.7495 27.2813 94.5895 27.068 94.4615 26.78L91.9175 20.876C91.8215 20.6413 91.7842 20.4227 91.8055 20.22C91.8375 20.0173 91.9335 19.8573 92.0935 19.74C92.2642 19.612 92.4935 19.548 92.7815 19.548C93.0268 19.548 93.2242 19.6067 93.3735 19.724C93.5228 19.8307 93.6562 20.0387 93.7735 20.348L95.9335 25.74H95.4535L97.6775 20.332C97.7948 20.0333 97.9282 19.8307 98.0775 19.724C98.2375 19.6067 98.4508 19.548 98.7175 19.548C98.9522 19.548 99.1388 19.612 99.2775 19.74C99.4162 19.8573 99.5015 20.0173 99.5335 20.22C99.5655 20.412 99.5282 20.6253 99.4215 20.86L96.8295 26.78C96.7122 27.068 96.5522 27.2813 96.3495 27.42C96.1575 27.5587 95.9228 27.628 95.6455 27.628ZM101.907 27.612C101.587 27.612 101.342 27.516 101.171 27.324C101 27.132 100.915 26.8653 100.915 26.524V20.652C100.915 20.3 101 20.0333 101.171 19.852C101.342 19.66 101.587 19.564 101.907 19.564C102.227 19.564 102.472 19.66 102.643 19.852C102.824 20.0333 102.915 20.3 102.915 20.652V26.524C102.915 26.8653 102.83 27.132 102.659 27.324C102.488 27.516 102.238 27.612 101.907 27.612ZM101.907 18.076C101.534 18.076 101.24 17.9853 101.027 17.804C100.824 17.612 100.723 17.3507 100.723 17.02C100.723 16.6787 100.824 16.4173 101.027 16.236C101.24 16.0547 101.534 15.964 101.907 15.964C102.291 15.964 102.584 16.0547 102.787 16.236C102.99 16.4173 103.091 16.6787 103.091 17.02C103.091 17.3507 102.99 17.612 102.787 17.804C102.584 17.9853 102.291 18.076 101.907 18.076ZM108.849 27.66C107.964 27.66 107.201 27.4947 106.561 27.164C105.921 26.8333 105.425 26.364 105.073 25.756C104.732 25.148 104.561 24.428 104.561 23.596C104.561 22.7853 104.726 22.076 105.057 21.468C105.398 20.86 105.862 20.3853 106.449 20.044C107.046 19.692 107.724 19.516 108.481 19.516C109.036 19.516 109.532 19.6067 109.969 19.788C110.417 19.9693 110.796 20.2307 111.105 20.572C111.425 20.9133 111.665 21.3293 111.825 21.82C111.996 22.3 112.081 22.844 112.081 23.452C112.081 23.644 112.012 23.7933 111.873 23.9C111.745 23.996 111.558 24.044 111.313 24.044H106.177V22.892H110.673L110.417 23.132C110.417 22.6413 110.342 22.2307 110.193 21.9C110.054 21.5693 109.846 21.3187 109.569 21.148C109.302 20.9667 108.966 20.876 108.561 20.876C108.113 20.876 107.729 20.9827 107.409 21.196C107.1 21.3987 106.86 21.692 106.689 22.076C106.529 22.4493 106.449 22.8973 106.449 23.42V23.532C106.449 24.4067 106.652 25.0627 107.057 25.5C107.473 25.9267 108.081 26.14 108.881 26.14C109.158 26.14 109.468 26.108 109.809 26.044C110.161 25.9693 110.492 25.8467 110.801 25.676C111.025 25.548 111.222 25.4947 111.393 25.516C111.564 25.5267 111.697 25.5853 111.793 25.692C111.9 25.7987 111.964 25.932 111.985 26.092C112.006 26.2413 111.974 26.396 111.889 26.556C111.814 26.716 111.681 26.8547 111.489 26.972C111.116 27.2067 110.684 27.3827 110.193 27.5C109.713 27.6067 109.265 27.66 108.849 27.66ZM116.564 27.628C116.297 27.628 116.068 27.564 115.876 27.436C115.684 27.2973 115.529 27.084 115.412 26.796L113.092 20.876C112.996 20.62 112.964 20.396 112.996 20.204C113.039 20.0013 113.14 19.8413 113.3 19.724C113.46 19.6067 113.673 19.548 113.94 19.548C114.175 19.548 114.367 19.6067 114.516 19.724C114.665 19.8307 114.793 20.0387 114.9 20.348L116.836 25.676H116.468L118.468 20.22C118.553 19.9853 118.665 19.8147 118.804 19.708C118.953 19.6013 119.145 19.548 119.38 19.548C119.615 19.548 119.807 19.6067 119.956 19.724C120.105 19.8307 120.217 19.996 120.292 20.22L122.26 25.676H121.924L123.876 20.3C123.983 20.012 124.116 19.8147 124.276 19.708C124.447 19.6013 124.633 19.548 124.836 19.548C125.092 19.548 125.289 19.612 125.428 19.74C125.567 19.868 125.647 20.0333 125.668 20.236C125.689 20.428 125.652 20.6413 125.556 20.876L123.252 26.796C123.145 27.0733 122.991 27.2813 122.788 27.42C122.596 27.5587 122.367 27.628 122.1 27.628C121.833 27.628 121.599 27.5587 121.396 27.42C121.204 27.2813 121.055 27.0733 120.948 26.796L118.852 21.244H119.764L117.716 26.78C117.609 27.068 117.46 27.2813 117.268 27.42C117.076 27.5587 116.841 27.628 116.564 27.628Z" fill="#7008E7"/>
<defs>
<clipPath id="clip0_64_131">
<rect x="4" y="4" width="37" height="37" rx="6" fill="white"/>
</clipPath>
</defs>
</svg>
